<svg id="Livello_1" data-name="Livello 1" xmlns="http://www.w3.org/2000/svg" viewBox="0 0 139.65 139.65"><defs><style>.cls-1{fill:#e8d7b1;}.cls-2{fill:#fff;stroke:#fff;stroke-miterlimit:10;stroke-width:2px;}</style></defs><rect class="cls-1" width="139.65" height="139.65" rx="40.55"/><path class="cls-2" d="M70.87,34.56c11.82,0,13.22,0,17.89.26A24.62,24.62,0,0,1,97,36.34a13.87,13.87,0,0,1,5.09,3.32,13.64,13.64,0,0,1,3.31,5.09A24.41,24.41,0,0,1,106.92,53c.21,4.67.25,6.07.25,17.9s0,13.22-.25,17.89A24.55,24.55,0,0,1,105.39,97a14.64,14.64,0,0,1-8.4,8.4,24.55,24.55,0,0,1-8.23,1.53c-4.67.21-6.07.25-17.89.25s-13.23,0-17.9-.25a24.41,24.41,0,0,1-8.22-1.53,13.76,13.76,0,0,1-5.1-3.31A14,14,0,0,1,36.34,97a24.62,24.62,0,0,1-1.52-8.23c-.22-4.67-.26-6.07-.26-17.89s0-13.23.26-17.9a24.48,24.48,0,0,1,1.52-8.22,14.68,14.68,0,0,1,8.41-8.41A24.48,24.48,0,0,1,53,34.82c4.67-.22,6.07-.26,17.9-.26m0-8c-12,0-13.54.05-18.26.27a32.45,32.45,0,0,0-10.75,2,22.64,22.64,0,0,0-13,13,32.45,32.45,0,0,0-2,10.75c-.22,4.72-.27,6.23-.27,18.26s.05,13.53.27,18.26a32.56,32.56,0,0,0,2,10.75,22.66,22.66,0,0,0,13,13,32.68,32.68,0,0,0,10.75,2.06c4.72.21,6.23.26,18.26.26s13.53-.05,18.26-.26a32.79,32.79,0,0,0,10.75-2.06,22.68,22.68,0,0,0,13-13,32.79,32.79,0,0,0,2.06-10.75c.21-4.73.26-6.24.26-18.26s-.05-13.54-.26-18.26a32.68,32.68,0,0,0-2.06-10.75,22.66,22.66,0,0,0-13-13,32.56,32.56,0,0,0-10.75-2c-4.73-.22-6.24-.27-18.26-.27" transform="translate(-1.04 -1.04)"/><path class="cls-2" d="M70.87,48.12A22.75,22.75,0,1,0,93.61,70.87,22.76,22.76,0,0,0,70.87,48.12m0,37.51A14.77,14.77,0,1,1,85.63,70.87,14.76,14.76,0,0,1,70.87,85.63" transform="translate(-1.04 -1.04)"/><path class="cls-2" d="M99.82,47.23a5.32,5.32,0,1,1-5.31-5.32,5.31,5.31,0,0,1,5.31,5.32" transform="translate(-1.04 -1.04)"/></svg>